<?xml version="1.0" standalone="no"?>
<!DOCTYPE svg PUBLIC "-//W3C//DTD SVG 20010904//EN"
 "http://www.w3.org/TR/2001/REC-SVG-20010904/DTD/svg10.dtd">
<svg version="1.0" xmlns="http://www.w3.org/2000/svg"
 width="537.000000pt" height="91.000000pt" viewBox="0 0 537.000000 91.000000"
 preserveAspectRatio="xMidYMid meet">
<metadata>
Created by potrace 1.16, written by Peter Selinger 2001-2019
</metadata>
<g transform="translate(0.000000,91.000000) scale(0.100000,-0.100000)"
fill="#000000" stroke="none">
<path d="M4723 878 c-6 -7 -73 -141 -148 -298 -86 -181 -135 -294 -133 -310 2
-19 12 -28 45 -40 38 -13 45 -13 57 0 21 22 286 575 286 598 0 40 -83 79 -107
50z"/>
<path d="M269 701 c-97 -58 -184 -113 -193 -120 -21 -18 -20 -64 2 -84 9 -8
98 -63 196 -122 125 -74 187 -105 205 -103 33 4 67 59 52 86 -5 10 -69 53
-141 96 -71 42 -130 80 -130 85 0 5 58 43 130 85 71 42 134 85 139 95 7 13 5
28 -7 52 -29 58 -54 52 -253 -70z"/>
<path d="M4881 781 c-40 -55 -31 -66 142 -167 64 -38 117 -72 117 -75 0 -4
-55 -39 -122 -79 -141 -83 -158 -97 -158 -120 0 -28 39 -70 65 -70 30 0 392
216 406 242 25 46 7 63 -195 183 -106 63 -202 115 -214 115 -11 0 -30 -13 -41
-29z"/>
</g>
</svg>
